<svg width="17" height="20" viewBox="0 0 17 20" fill="none" xmlns="http://www.w3.org/2000/svg">
    <path fill-rule="evenodd" clip-rule="evenodd" d="M3.5625 4.40625C3.5625 4.30313 3.64687 4.21875 3.75 4.21875H12.75C12.8531 4.21875 12.9375 4.30313 12.9375 4.40625V5.53125C12.9375 5.63438 12.8531 5.71875 12.75 5.71875H3.75C3.64687 5.71875 3.5625 5.63438 3.5625 5.53125V4.40625ZM8.25 7.78125V8.90625C8.25 9.00938 8.16562 9.09375 8.0625 9.09375H3.75C3.64687 9.09375 3.5625 9.00938 3.5625 8.90625V7.78125C3.5625 7.67813 3.64687 7.59375 3.75 7.59375H8.0625C8.16562 7.59375 8.25 7.67813 8.25 7.78125ZM1.6875 18.1875H7.125C7.22813 18.1875 7.3125 18.2719 7.3125 18.375V19.6875C7.3125 19.7906 7.22813 19.875 7.125 19.875H0.75C0.335156 19.875 0 19.5398 0 19.125V0.75C0 0.335156 0.335156 0 0.75 0H15.75C16.1648 0 16.5 0.335156 16.5 0.75V9.75C16.5 9.85313 16.4156 9.9375 16.3125 9.9375H15C14.8969 9.9375 14.8125 9.85313 14.8125 9.75V1.6875H1.6875V18.1875ZM14.3338 16.6262L16.0839 17.3762C16.1648 17.4114 16.231 17.4738 16.2709 17.5525C16.3109 17.6312 16.3221 17.7214 16.3028 17.8075L15.9278 19.4325C15.9087 19.5152 15.8621 19.5889 15.7957 19.6417C15.7293 19.6945 15.647 19.7232 15.5621 19.7231C11.5605 19.7231 8.31201 16.4809 8.31201 12.473C8.31199 12.3882 8.34072 12.3059 8.3935 12.2395C8.44629 12.1731 8.52001 12.1266 8.60264 12.1075L10.2277 11.7325C10.3134 11.7131 10.4032 11.7241 10.4816 11.7637C10.5601 11.8034 10.6222 11.8692 10.6574 11.9497L11.4074 13.6998C11.4394 13.7745 11.4462 13.8576 11.4267 13.9366C11.4073 14.0155 11.3626 14.086 11.2996 14.1373L10.3527 14.9123C10.9262 16.1286 11.905 17.1074 13.1213 17.6809L13.8963 16.734C13.9477 16.6711 14.0182 16.6265 14.0971 16.6071C14.176 16.5876 14.2591 16.5944 14.3338 16.6262Z" fill="#FAFAFA"/>
</svg>
