<svg width="18" height="21" viewBox="0 0 18 21" fill="none" xmlns="http://www.w3.org/2000/svg">
    <path d="M3.75 4.21875C3.64687 4.21875 3.5625 4.30313 3.5625 4.40625V5.53125C3.5625 5.63438 3.64687 5.71875 3.75 5.71875H12.75C12.8531 5.71875 12.9375 5.63438 12.9375 5.53125V4.40625C12.9375 4.30313 12.8531 4.21875 12.75 4.21875H3.75ZM8.25 8.90625V7.78125C8.25 7.67813 8.16562 7.59375 8.0625 7.59375H3.75C3.64687 7.59375 3.5625 7.67813 3.5625 7.78125V8.90625C3.5625 9.00938 3.64687 9.09375 3.75 9.09375H8.0625C8.16562 9.09375 8.25 9.00938 8.25 8.90625ZM7.125 18.1875H1.6875V1.6875H14.8125V9.75C14.8125 9.85313 14.8969 9.9375 15 9.9375H16.3125C16.4156 9.9375 16.5 9.85313 16.5 9.75V0.75C16.5 0.335156 16.1648 0 15.75 0H0.75C0.335156 0 0 0.335156 0 0.75V19.125C0 19.5398 0.335156 19.875 0.75 19.875H7.125C7.22813 19.875 7.3125 19.7906 7.3125 19.6875V18.375C7.3125 18.2719 7.22813 18.1875 7.125 18.1875ZM9.56484 15.4781C9.60703 14.6695 9.94453 13.9125 10.5211 13.3359C11.1352 12.7219 11.9742 12.375 12.8438 12.375C13.7203 12.375 14.5453 12.7172 15.1664 13.3359C15.2414 13.4109 15.3141 13.4906 15.382 13.5727L14.8406 13.9922C14.8127 14.0138 14.7915 14.0428 14.7793 14.076C14.7672 14.1091 14.7646 14.145 14.772 14.1795C14.7793 14.214 14.7962 14.2458 14.8208 14.2711C14.8454 14.2964 14.8766 14.3143 14.9109 14.3227L17.0977 14.85C17.2148 14.8781 17.3273 14.7891 17.3297 14.6695L17.3438 12.4336C17.3441 12.3984 17.3345 12.3638 17.3161 12.3337C17.2977 12.3037 17.2711 12.2795 17.2396 12.2638C17.208 12.2482 17.1727 12.2417 17.1377 12.2452C17.1026 12.2487 17.0692 12.262 17.0414 12.2836L16.5656 12.6539C15.6891 11.5688 14.3461 10.875 12.8438 10.875C10.268 10.875 8.16562 12.9117 8.0625 15.4617C8.05781 15.5672 8.14453 15.6563 8.25 15.6563H9.37734C9.47812 15.6563 9.56016 15.5789 9.56484 15.4781ZM17.4375 15.6563H16.3102C16.2094 15.6563 16.1273 15.7336 16.1227 15.8344C16.0805 16.643 15.743 17.4 15.1664 17.9766C14.5523 18.5906 13.7133 18.9375 12.8438 18.9375C11.9672 18.9375 11.1422 18.5953 10.5211 17.9766C10.4461 17.9016 10.3734 17.8219 10.3055 17.7398L10.8469 17.3203C10.8748 17.2987 10.896 17.2697 10.9082 17.2365C10.9203 17.2034 10.9229 17.1675 10.9155 17.133C10.9082 17.0985 10.8913 17.0667 10.8667 17.0414C10.8421 17.0161 10.8109 16.9982 10.7766 16.9898L8.58984 16.4625C8.47266 16.4344 8.36016 16.5234 8.35781 16.643L8.34375 18.8789C8.34341 18.9141 8.35301 18.9487 8.37143 18.9788C8.38985 19.0088 8.41636 19.033 8.44791 19.0487C8.47946 19.0643 8.51479 19.0708 8.54984 19.0673C8.58489 19.0638 8.61825 19.0505 8.64609 19.0289L9.12188 18.6586C9.99844 19.7438 11.3414 20.4375 12.8438 20.4375C15.4195 20.4375 17.5219 18.4008 17.625 15.8508C17.6297 15.7453 17.543 15.6563 17.4375 15.6563Z" fill="#FAFAFA"/>
</svg>
