<svg xmlns="http://www.w3.org/2000/svg" width="22" height="21" viewBox="0 0 22 21" fill="none">
    <path fill-rule="evenodd" clip-rule="evenodd" d="M15.2501 6C15.2501 8.48528 13.2354 10.5 10.7501 10.5C8.26485 10.5 6.25013 8.48528 6.25013 6C6.25013 3.51472 8.26485 1.5 10.7501 1.5C13.2354 1.5 15.2501 3.51472 15.2501 6ZM13.1129 11.5169C15.2518 10.5996 16.7501 8.47478 16.7501 6C16.7501 2.68629 14.0638 0 10.7501 0C7.43642 0 4.75013 2.68629 4.75013 6C4.75013 8.47478 6.24843 10.5996 8.38741 11.5169C6.42994 11.967 4.74396 12.9477 3.4094 14.1589C1.57552 15.8232 0.358795 17.9647 0.0122896 19.8655C-0.061994 20.273 0.20813 20.6636 0.615628 20.7378C1.02313 20.8121 1.41369 20.542 1.48797 20.1345C1.76647 18.6068 2.78832 16.7482 4.41747 15.2697C6.03511 13.8016 8.20525 12.75 10.7501 12.75C13.295 12.75 15.4652 13.8016 17.0828 15.2697C18.7119 16.7482 19.7338 18.6068 20.0123 20.1345C20.0866 20.542 20.4771 20.8121 20.8846 20.7378C21.2921 20.6636 21.5623 20.273 21.488 19.8655C21.1415 17.9647 19.9247 15.8232 18.0909 14.1589C16.7563 12.9477 15.0703 11.967 13.1129 11.5169Z" fill="#FAFAFA"/>
</svg>
