<svg width="24" height="24" viewBox="0 0 24 24" fill="none" xmlns="http://www.w3.org/2000/svg">
    <g opacity="0.5" clip-path="url(#clip0_3301_13392)">
        <path d="M23.7861 17.3669C23.7216 17.2589 23.3226 16.3918 21.4024 14.6097C19.3923 12.7435 19.6623 13.0465 22.0835 9.81981C23.5581 7.85466 24.1476 6.65457 23.9631 6.14153C23.7876 5.6525 22.703 5.78151 22.703 5.78151L19.0968 5.80251C19.0968 5.80251 18.8297 5.7665 18.6302 5.88501C18.4367 6.00202 18.3122 6.27204 18.3122 6.27204C18.3122 6.27204 17.7407 7.79315 16.9786 9.08625C15.372 11.815 14.7284 11.959 14.4659 11.7895C13.8554 11.3949 14.0084 10.2023 14.0084 9.35627C14.0084 6.71157 14.4089 5.60899 13.2268 5.32397C12.8338 5.22946 12.5458 5.16646 11.5422 5.15596C10.2551 5.14246 9.16452 5.16046 8.54797 5.46198C8.13694 5.663 7.82042 6.11153 8.01393 6.13703C8.25245 6.16853 8.79249 6.28254 9.07901 6.67257C9.44954 7.17511 9.43604 8.30619 9.43604 8.30619C9.43604 8.30619 9.64905 11.4189 8.9395 11.806C8.45196 12.0715 7.78441 11.5299 6.35181 9.05325C5.61825 7.78565 5.06321 6.38305 5.06321 6.38305C5.06321 6.38305 4.9567 6.12203 4.76619 5.98252C4.53517 5.81301 4.21115 5.759 4.21115 5.759L0.781893 5.78001C0.781893 5.78001 0.267355 5.79501 0.0783407 6.01852C-0.0896718 6.21804 0.0648397 6.62907 0.0648397 6.62907C0.0648397 6.62907 2.75004 12.91 5.78927 16.0768C8.57797 18.9795 11.7432 18.789 11.7432 18.789H13.1773C13.1773 18.789 13.6108 18.741 13.8314 18.5024C14.0354 18.2834 14.0279 17.8724 14.0279 17.8724C14.0279 17.8724 13.9994 15.9478 14.8934 15.6642C15.774 15.3852 16.9051 17.5244 18.1037 18.3479C19.0097 18.9705 19.6983 18.834 19.6983 18.834L22.904 18.789C22.904 18.789 24.5812 18.6855 23.7861 17.3669Z" fill="black"/>
    </g>
    <defs>
        <clipPath id="clip0_3301_13392">
            <rect width="24" height="24" fill="white"/>
        </clipPath>
    </defs>
</svg>
