<?xml version="1.0" encoding="utf-8"?><svg viewBox="0 0 502.66 502.66" xmlns="http://www.w3.org/2000/svg" xmlns:xlink="http://www.w3.org/1999/xlink"><style>:root>svg{display:none}:root>svg:target{display:block}</style><svg viewBox="0 0 50 50" id="git" xmlns="http://www.w3.org/2000/svg"><path d="M25 2C12.311 2 2 12.311 2 25s10.311 23 23 23 23-10.311 23-23S37.689 2 25 2zm0 2c11.607 0 21 9.393 21 21 0 .071-.005.142-.006.213a39.758 39.758 0 00-2.318-.149 59.326 59.326 0 00-4.903.061c.07-.49.12-.988.122-1.498.096-1.873-.532-3.625-1.555-5.172.247-.854.537-1.94.61-3.172.082-1.404-.04-2.961-1.167-4.013l-.289-.27H36.1c-2.683 0-4.52 1.123-5.643 2.014A15.026 15.026 0 0025 12a15.82 15.82 0 00-5.553 1.018C18.325 12.127 16.487 11 13.801 11h-.393l-.289.268c-1.098 1.02-1.2 2.534-1.13 3.931.06 1.233.333 2.353.575 3.248-1.04 1.578-1.664 3.375-1.664 5.153 0 .511.048 1.01.118 1.502-1.806-.084-3.416-.1-4.694-.055a39.49 39.49 0 00-2.318.148c0-.065-.006-.13-.006-.195C4 13.393 13.393 4 25 4zm-10.604 9.13c2.018.192 3.536 1.093 4.239 1.718l.469.414.578-.237C21.263 14.375 23.027 14 25 14c1.973 0 3.737.376 5.2 1.016l.585.257.479-.425c.703-.625 2.223-1.526 4.242-1.717.268.445.501 1.078.445 2.035-.067 1.146-.374 2.394-.605 3.135l-.15.482.298.408c.99 1.35 1.494 2.81 1.408 4.354l-.002.027v.028c0 2.495-.898 4.492-2.812 5.972C32.174 31.052 29.153 32 24.9 32c-4.252 0-7.275-.948-9.19-2.428-1.913-1.48-2.81-3.477-2.81-5.972 0-1.465.53-3.076 1.506-4.409l.293-.398-.14-.475c-.232-.788-.516-2.064-.573-3.216-.047-.96.18-1.565.41-1.971zM8.885 26.022c.706.01 1.516.048 2.328.088.077.312.166.619.273.918-3.307.07-5.781.403-7.306.688-.065-.5-.116-1.005-.145-1.516a44.845 44.845 0 014.85-.178zm32.23.016c2.133-.027 3.72.071 4.848.178-.029.503-.08 1-.143 1.494-1.58-.29-4.12-.622-7.513-.676.105-.293.193-.595.27-.9a64.2 64.2 0 012.538-.096zM11.912 28.02a9.029 9.029 0 002.576 3.134c1.54 1.192 3.544 2.024 5.989 2.469-.32.329-.611.69-.87 1.07l-.06-.052c.005-.007-.497.245-1.248.312S16.622 35 15.8 35c-1.225 0-1.765-.579-2.627-1.633a7.098 7.098 0 00-1.625-1.56c-.579-.406-1.073-.691-1.684-.793L9.783 31H9.7c-.466 0-.918.034-1.34.516-.21.24-.356.687-.261 1.064.094.378.333.61.547.752 1.366.911 1.608 2.715 2.464 4.318.8 1.594 2.527 2.35 4.291 2.35H18v4.803c-7.032-2.482-12.335-8.598-13.668-16.1 1.53-.288 4.095-.635 7.58-.683zm25.97.007c3.564.03 6.199.377 7.788.67C44.339 36.202 39.034 42.32 32 44.803V39.6c0-1.585-.52-3.332-1.426-4.79a7.52 7.52 0 00-.959-1.236c2.315-.457 4.217-1.275 5.698-2.42a9.004 9.004 0 002.57-3.127zM23.7 34.1h2.8c.813 0 1.68.647 2.375 1.765C29.57 36.983 30 38.485 30 39.6v5.798a21.078 21.078 0 01-10 0V39.6c0-1.091.468-2.589 1.209-3.711.741-1.123 1.677-1.79 2.49-1.79zm-11.39 1.18c.864.9 1.913 1.72 3.49 1.72.779 0 1.751.028 2.676-.055l.01-.002c-.122.35-.213.703-.29 1.057H15.4c-1.233 0-2.104-.446-2.505-1.248l-.008-.014-.006-.011c-.165-.306-.38-.916-.572-1.446z"/></svg><svg viewBox="0 0 502.664 502.664" id="icon" xmlns="http://www.w3.org/2000/svg"><path d="M153.821 358.226L0 274.337v-46.463l153.821-83.414v54.574L46.636 250.523l107.185 53.431v54.272zm26.273 29.358L282.103 115.08h32.227L212.084 387.584h-31.99zm168.749-29.358v-54.272l107.164-52.999-107.164-52.59v-53.927l153.821 83.522v46.183l-153.821 84.083z"/></svg><svg viewBox="0 0 80 80" id="mail" xmlns="http://www.w3.org/2000/svg"><path d="M11.5 14c-3.574 0-6.492 2.914-6.5 6.484V61.5c0 3.578 2.922 6.5 6.5 6.5h57c3.578 0 6.5-2.922 6.5-6.5V20.484C74.992 16.914 72.074 14 68.5 14zm0 2h57c.945 0 1.82.29 2.543.781l-.148.27.375.812.875.188.105-.047a4.49 4.49 0 01.75 2.492v.004a4.993 4.993 0 01-2.14 4.09L40 46.094 9.14 24.59A4.993 4.993 0 017 20.5v-.004c0-.96.305-1.844.813-2.574l.57.082.633-.629-.082-.574A4.504 4.504 0 0111.5 16zm-.469 2.395l-.633.636.13.887.25.246.081.059.887.125.633-.63-.129-.89-.25-.25-.078-.055zm57.328.011l-.316.145-.086.058-.426.786.375.816.875.184.32-.145.083-.059.425-.785-.375-.812zm-53.964 2.332l-.633.637.129.887.25.25.078.054.89.13.633-.634-.129-.89-.25-.246-.082-.059zM65 20.75l-.324.145-.082.058-.426.785.375.817.875.187.32-.148.082-.059.43-.785-.375-.813zm-47.238 2.332l-.637.637.129.886.25.25.082.055.887.13.632-.634-.125-.886-.25-.25-.085-.055zm43.87.012l-.32.144-.082.059-.43.785.376.816.879.188.32-.148.082-.06.43-.784-.375-.813zM7 25.364c.305.316.633.609 1 .866L11.977 29A1.002 1.002 0 0011 30c0 .55.45 1 1 1a1.002 1.002 0 00.945-1.324L40 48.53l27.055-18.855A1.002 1.002 0 0068 31a1 1 0 00.023-2L72 26.23a6.87 6.87 0 001-.867V61.5c0 2.328-1.746 4.2-4 4.45a1.002 1.002 0 00-2 .05H13a1.002 1.002 0 00-2-.05c-2.254-.25-4-2.122-4-4.45zm14.125.062l-.637.637.13.886.25.25.081.055.887.129.633-.633-.125-.887-.25-.25-.082-.054zm37.145.012l-.32.144-.083.059-.43.789.376.812.878.188.32-.149.083-.058.426-.785-.375-.813zM24.488 27.77l-.633.636.13.887.245.25.082.055.887.132.633-.636-.129-.887-.246-.25-.082-.055zm30.418.011l-.32.145-.082.058-.426.79.375.816.875.183.317-.148.085-.055.426-.789-.375-.812zm-27.054 2.336l-.633.633.125.887.25.25.082.054.887.133.636-.636-.133-.887-.246-.25-.082-.055zm23.691.008l-.32.148-.082.055-.426.79.375.816.875.187.316-.152.082-.055.43-.789-.375-.813zm-20.328 2.336l-.637.633.129.886.25.25.086.055.883.133.637-.637-.13-.886-.25-.25-.081-.055zm16.965.008l-.32.148-.083.055-.43.789.376.816.875.188.324-.153.078-.054.43-.79-.375-.812zM12 33c-.55 0-1 .45-1 1s.45 1 1 1 1-.45 1-1-.45-1-1-1zm56 0c-.55 0-1 .45-1 1s.45 1 1 1 1-.45 1-1-.45-1-1-1zm-33.422 1.805l-.633.633.13.89.25.246.081.055.887.133.629-.637-.125-.887-.25-.25-.082-.054zm10.234.008l-.316.148-.086.059-.426.789.375.812.875.188.325-.149.082-.058.425-.79-.375-.812zM12 37c-.55 0-1 .45-1 1s.45 1 1 1 1-.45 1-1-.45-1-1-1zm56 0c-.55 0-1 .45-1 1s.45 1 1 1 1-.45 1-1-.45-1-1-1zm-30.059.148l-.632.633.129.89.25.247.078.059.89.128.633-.636-.129-.887-.25-.246-.082-.059zm3.512.008l-.324.153-.082.054-.426.79.375.812.879.187.316-.148.086-.055.426-.789-.375-.816zM12 41c-.55 0-1 .45-1 1s.45 1 1 1 1-.45 1-1-.45-1-1-1zm56 0c-.55 0-1 .45-1 1s.45 1 1 1 1-.45 1-1-.45-1-1-1zm-56 4c-.55 0-1 .45-1 1s.45 1 1 1 1-.45 1-1-.45-1-1-1zm56 0c-.55 0-1 .45-1 1s.45 1 1 1 1-.45 1-1-.45-1-1-1zm-56 4c-.55 0-1 .45-1 1s.45 1 1 1 1-.45 1-1-.45-1-1-1zm56 0c-.55 0-1 .45-1 1s.45 1 1 1 1-.45 1-1-.45-1-1-1zm-56 4c-.55 0-1 .45-1 1s.45 1 1 1 1-.45 1-1-.45-1-1-1zm56 0c-.55 0-1 .45-1 1s.45 1 1 1 1-.45 1-1-.45-1-1-1zm-56 4c-.55 0-1 .45-1 1s.45 1 1 1 1-.45 1-1-.45-1-1-1zm56 0c-.55 0-1 .45-1 1s.45 1 1 1 1-.45 1-1-.45-1-1-1zm-56 4c-.55 0-1 .45-1 1s.45 1 1 1 1-.45 1-1-.45-1-1-1zm56 0c-.55 0-1 .45-1 1s.45 1 1 1 1-.45 1-1-.45-1-1-1z"/></svg><svg viewBox="0 0 50 50" id="phone" xmlns="http://www.w3.org/2000/svg"><path d="M14 3.99c-5.511 0-10 4.489-10 10v22c0 5.512 4.489 10 10 10h22c5.511 0 10-4.488 10-10v-22c0-5.511-4.489-10-10-10H14zm0 2h22c4.43 0 8 3.57 8 8v22c0 4.43-3.57 8-8 8H14c-4.43 0-8-3.57-8-8v-22c0-4.43 3.57-8 8-8zm4.049 5.045c-2.045-.088-3.598.689-4.574 1.623a5.45 5.45 0 00-1.082 1.434c-.242.466-.395.851-.395 1.351A13.49 13.49 0 0012 16.984c.05.885.2 2.082.598 3.5.795 2.838 2.586 6.56 6.472 10.446 3.886 3.886 7.608 5.677 10.446 6.472a16.39 16.39 0 003.5.598 13.415 13.415 0 001.54.002c.5 0 .886-.153 1.352-.395a5.479 5.479 0 001.434-1.082c.934-.976 1.711-2.529 1.623-4.574-.042-.975-.584-1.84-1.383-2.351l-2.828-1.81a4.746 4.746 0 00-4.824-.165l.086-.043-1.178.506-.086.06a.99.99 0 01-.963.104 11.417 11.417 0 01-3.615-2.426 11.417 11.417 0 01-2.426-3.615.99.99 0 01.104-.963l.06-.086.506-1.178-.043.086a4.743 4.743 0 00-.164-4.824 3494.8 3494.8 0 00-1.81-2.828c-.513-.8-1.377-1.34-2.352-1.383zm-.086 1.998c.28.012.57.176.754.463l1.81 2.828c.531.83.568 1.92.094 2.785l-.023.043-.483 1.127.1-.181a3.01 3.01 0 00-.313 2.884 13.36 13.36 0 002.858 4.258 13.36 13.36 0 004.258 2.858 3.01 3.01 0 002.884-.313l-.181.1 1.127-.483.043-.023a2.765 2.765 0 012.785.096v-.002l2.828 1.81a.97.97 0 01.463.754c.065 1.519-.462 2.47-1.07 3.106a3.549 3.549 0 01-.907.689c-.272.14-.532.17-.433.17-.184 0-.28.012-.51.018-.23.005-.538.005-.918-.016-.76-.043-1.81-.173-3.074-.527-2.528-.71-5.917-2.308-9.57-5.961-3.654-3.654-5.253-7.043-5.962-9.57a14.41 14.41 0 01-.527-3.075 11.31 11.31 0 01-.016-.918c.006-.23.018-.326.018-.51 0 .1.03-.161.17-.433s.371-.602.69-.906c.635-.609 1.586-1.136 3.105-1.07z"/></svg><svg viewBox="0 0 50 50" id="telegram" xmlns="http://www.w3.org/2000/svg"><path d="M25 2C12.31 2 2 12.31 2 25s10.31 23 23 23 23-10.31 23-23S37.69 2 25 2zm0 2c11.61 0 21 9.39 21 21s-9.39 21-21 21S4 36.61 4 25 13.39 4 25 4zm9.088 10.035c-.684 0-1.453.159-2.352.483-1.396.503-17.815 7.474-19.683 8.267-1.068.454-3.057 1.299-3.057 3.313 0 1.335.782 2.29 2.322 2.84.828.295 2.795.89 3.936 1.205.484.133.998.2 1.527.2 1.035 0 2.077-.257 2.893-.712-.007.168-.003.338.017.508.123 1.05.77 2.037 1.73 2.642.629.396 5.758 3.833 6.524 4.38 1.076.768 2.266 1.175 3.438 1.175 2.24 0 2.991-2.313 3.353-3.424.525-1.613 2.491-14.73 2.713-17.043.151-1.585-.51-2.89-1.767-3.492a3.645 3.645 0 00-1.594-.342zm0 2c.275 0 .52.046.728.147.473.227.714.733.641 1.498-.242 2.523-2.203 15.329-2.621 16.613-.358 1.098-.735 2.043-1.453 2.043-.718 0-1.503-.252-2.276-.805-.773-.552-5.906-3.994-6.619-4.443-.625-.394-1.286-1.376-.355-2.326.767-.782 6.585-6.43 7.082-6.926.37-.371.197-.818-.166-.818-.125 0-.275.052-.43.18-.608.496-9.084 6.168-9.818 6.624-.486.302-1.239.52-2.02.52-.333 0-.67-.04-.994-.13-1.128-.31-3.037-.89-3.795-1.16-.729-.26-.994-.508-.994-.954 0-.634.895-1.072 1.838-1.473.996-.423 18.23-7.742 19.578-8.227.624-.226 1.195-.363 1.674-.363z"/></svg></svg>